<svg xmlns="http://www.w3.org/2000/svg" width="1600" height="900" viewBox="0 0 1600 900" role="img" aria-labelledby="title desc">
  <title id="title">AI Digital Product Support Kit cover</title>
  <desc id="desc">Clean support inbox worksheet cover for a digital prompt kit.</desc>
  <rect width="1600" height="900" fill="#f8fafc"/>
  <rect x="120" y="120" width="1360" height="660" rx="28" fill="#ffffff" stroke="#0f172a" stroke-width="6"/>
  <rect x="190" y="190" width="390" height="58" rx="10" fill="#0f172a"/>
  <rect x="190" y="295" width="1040" height="78" rx="16" fill="#e0f2fe" stroke="#0284c7" stroke-width="4"/>
  <rect x="230" y="323" width="120" height="22" rx="6" fill="#0284c7"/>
  <rect x="390" y="323" width="620" height="22" rx="6" fill="#94a3b8"/>
  <rect x="190" y="415" width="980" height="78" rx="16" fill="#ecfdf5" stroke="#16a34a" stroke-width="4"/>
  <rect x="230" y="443" width="120" height="22" rx="6" fill="#16a34a"/>
  <rect x="390" y="443" width="540" height="22" rx="6" fill="#94a3b8"/>
  <rect x="190" y="535" width="1080" height="78" rx="16" fill="#fef3c7" stroke="#d97706" stroke-width="4"/>
  <rect x="230" y="563" width="120" height="22" rx="6" fill="#d97706"/>
  <rect x="390" y="563" width="690" height="22" rx="6" fill="#94a3b8"/>
  <rect x="1110" y="210" width="230" height="72" rx="16" fill="#0f172a"/>
  <text x="1142" y="257" font-family="Arial, sans-serif" font-size="34" font-weight="700" fill="#ffffff">Reply</text>
  <text x="190" y="735" font-family="Arial, sans-serif" font-size="36" font-weight="700" fill="#0f172a">AI Digital Product Support Kit</text>
</svg>
